<?xml version="1.0" encoding="utf-8" ?>
<svg baseProfile="full" height="800" version="1.1" width="800" xmlns="http://www.w3.org/2000/svg" xmlns:ev="http://www.w3.org/2001/xml-events" xmlns:xlink="http://www.w3.org/1999/xlink"><defs /><line stroke="blue" stroke-width="2.0" x1="724.5904745986509" x2="724.4310223373735" y1="399.99999999999994" y2="391.03972490487183" /><line stroke="blue" stroke-width="2.0" x1="724.4310223373735" x2="723.9529776384323" y1="391.03972490487183" y2="382.0921285907627" /><line stroke="blue" stroke-width="2.0" x1="723.9529776384323" x2="723.1572756618366" y1="382.0921285907627" y2="373.1698555272081" /><line stroke="blue" stroke-width="2.0" x1="723.1572756618366" x2="722.0454716597377" y1="373.1698555272081" y2="364.28548168173137" /><line stroke="blue" stroke-width="2.0" x1="722.0454716597377" x2="720.6197359675269" y1="364.28548168173137" y2="355.4514805707707" /><line stroke="blue" stroke-width="2.0" x1="720.6197359675269" x2="718.8828470170832" y1="355.4514805707707" y2="346.68018967166836" /><line stroke="blue" stroke-width="2.0" x1="718.8828470170832" x2="716.8381823977498" y1="346.68018967166836" y2="337.9837773139822" /><line stroke="blue" stroke-width="2.0" x1="716.8381823977498" x2="714.4897079977861" y1="337.9837773139822" y2="329.37421016659437" /><line stroke="blue" stroke-width="2.0" x1="714.4897079977861" x2="711.8419652660464" y1="329.37421016659437" y2="320.8632214348764" /><line stroke="blue" stroke-width="2.0" x1="711.8419652660464" x2="708.9000566405234" y1="320.8632214348764" y2="312.46227987952705" /><line stroke="blue" stroke-width="2.0" x1="708.9000566405234" x2="705.669629197095" y1="312.46227987952705" y2="304.1825597656376" /><line stroke="blue" stroke-width="2.0" x1="705.669629197095" x2="702.1568565783017" y1="304.1825597656376" y2="296.03491184708264" /><line stroke="blue" stroke-width="2.0" x1="702.1568565783017" x2="698.3684192682725" y1="296.03491184708264" y2="288.0298354874775" /><line stroke="blue" stroke-width="2.0" x1="698.3684192682725" x2="694.3114832859383" y1="288.0298354874775" y2="280.1774520147178" /><line stroke="blue" stroke-width="2.0" x1="694.3114832859383" x2="689.9936773744276" y1="280.1774520147178" y2="272.4874794015245" /><line stroke="blue" stroke-width="2.0" x1="689.9936773744276" x2="685.423068770012" y1="272.4874794015245" y2="264.96920835948845" /><line stroke="blue" stroke-width="2.0" x1="685.423068770012" x2="680.6081376391205" y1="264.96920835948845" y2="257.6314799288501" /><line stroke="blue" stroke-width="2.0" x1="680.6081376391205" x2="675.5577502767616" y1="257.6314799288501" y2="250.4826646406874" /><line stroke="blue" stroke-width="2.0" x1="675.5577502767616" x2="670.2811311641692" y1="250.4826646406874" y2="243.53064332234203" /><line stroke="blue" stroke-width="2.0" x1="670.2811311641692" x2="664.787833987593" y1="243.53064332234203" y2="236.78278961080434" /><line stroke="blue" stroke-width="2.0" x1="664.787833987593" x2="659.0877117238791" y1="236.78278961080434" y2="230.24595423242977" /><line stroke="blue" stroke-width="2.0" x1="659.0877117238791" x2="653.1908859018175" y1="230.24595423242977" y2="223.92645110080196" /><line stroke="blue" stroke-width="2.0" x1="653.1908859018175" x2="647.1077151511507" y1="223.92645110080196" y2="217.83004527779963" /><line stroke="blue" stroke-width="2.0" x1="647.1077151511507" x2="640.8487631536472" y1="217.83004527779963" y2="211.96194283601164" /><line stroke="blue" stroke-width="2.0" x1="640.8487631536472" x2="634.42476611271" y1="211.96194283601164" y2="206.32678265358436" /><line stroke="blue" stroke-width="2.0" x1="634.42476611271" x2="627.846599859636" y1="206.32678265358436" y2="200.9286301654181" /><line stroke="blue" stroke-width="2.0" x1="627.846599859636" x2="621.125246715832" y1="200.9286301654181" y2="195.77097308737234" /><line stroke="blue" stroke-width="2.0" x1="621.125246715832" x2="614.2717622310518" y1="195.77097308737234" y2="190.85671912282623" /><line stroke="blue" stroke-width="2.0" x1="614.2717622310518" x2="607.297241918009" y1="190.85671912282623" y2="186.18819565359672" /><line stroke="blue" stroke-width="2.0" x1="607.297241918009" x2="600.2127881035827" y1="186.18819565359672" y2="181.76715140986698" /><line stroke="blue" stroke-width="2.0" x1="600.2127881035827" x2="593.029477016226" y1="181.76715140986698" y2="177.59476010645142" /><line stroke="blue" stroke-width="2.0" x1="593.029477016226" x2="585.7583262281468" y1="177.59476010645142" y2="173.6716260254566" /><line stroke="blue" stroke-width="2.0" x1="585.7583262281468" x2="578.4102625693398" y1="173.6716260254566" y2="169.9977915181953" /><line stroke="blue" stroke-width="2.0" x1="578.4102625693398" x2="570.9960906286232" y1="169.9977915181953" y2="166.57274639213063" /><line stroke="blue" stroke-width="2.0" x1="570.9960906286232" x2="563.5264619544765" y1="166.57274639213063" y2="163.39543914166347" /><line stroke="blue" stroke-width="2.0" x1="563.5264619544765" x2="556.0118450657037" y1="163.39543914166347" y2="160.46428997478733" /><line stroke="blue" stroke-width="2.0" x1="556.0118450657037" x2="548.4624963787481" y1="160.46428997478733" y2="157.77720558101373" /><line stroke="blue" stroke-width="2.0" x1="548.4624963787481" x2="540.888432154913" y1="157.77720558101373" y2="155.33159557957345" /><line stroke="blue" stroke-width="2.0" x1="540.888432154913" x2="533.2994015667573" y1="155.33159557957345" y2="153.12439058072277" /><line stroke="blue" stroke-width="2.0" x1="533.2994015667573" x2="525.7048609786066" y1="153.12439058072277" y2="151.15206178707058" /><line stroke="blue" stroke-width="2.0" x1="525.7048609786066" x2="518.1139495314172" y1="151.15206178707058" y2="149.41064205620478" /><line stroke="blue" stroke-width="2.0" x1="518.1139495314172" x2="510.53546611720515" y1="149.41064205620478" y2="147.8957483405568" /><line stroke="blue" stroke-width="2.0" x1="510.53546611720515" x2="0.9999127583600288" y1="147.8957483405568" y2="1.7319033351245652" /><line stroke="blue" stroke-width="2.0" x1="0.9999127583600288" x2="502.97784782290427" y1="1.7319033351245652" y2="146.6026054154272" /><line stroke="blue" stroke-width="2.0" x1="502.97784782290427" x2="495.44914991787493" y1="146.6026054154272" y2="145.52607080141058" /><line stroke="blue" stroke-width="2.0" x1="495.44914991787493" x2="487.9570274533653" y1="145.52607080141058" y2="144.66066078313747" /><line stroke="blue" stroke-width="2.0" x1="487.9570274533653" x2="480.50871853605753" y1="144.66066078313747" y2="144.00057742229228" /><line stroke="blue" stroke-width="2.0" x1="480.50871853605753" x2="473.111029331429" y1="144.00057742229228" y2="143.53973645930523" /><line stroke="blue" stroke-width="2.0" x1="473.111029331429" x2="465.77032084605486" y1="143.53973645930523" y2="143.27179599494468" /><line stroke="blue" stroke-width="2.0" x1="465.77032084605486" x2="458.49249753118664" y1="143.27179599494468" y2="143.190185840283" /><line stroke="blue" stroke-width="2.0" x1="458.49249753118664" x2="451.28299774300734" y1="143.190185840283" y2="143.28813742117563" /><line stroke="blue" stroke-width="2.0" x1="451.28299774300734" x2="444.1467860878866" y1="143.28813742117563" y2="143.5587141214894" /><line stroke="blue" stroke-width="2.0" x1="444.1467860878866" x2="437.0883476737897" y1="143.5587141214894" y2="143.99484194785248" /><line stroke="blue" stroke-width="2.0" x1="437.0883476737897" x2="430.1116842817484" y1="143.99484194785248" y2="144.5893403976745" /><line stroke="blue" stroke-width="2.0" x1="430.1116842817484" x2="423.220312464004" y1="144.5893403976745" y2="145.33495341161233" /><line stroke="blue" stroke-width="2.0" x1="423.220312464004" x2="416.41726356811864" y1="145.33495341161233" y2="146.2243802915267" /><line stroke="blue" stroke-width="2.0" x1="416.41726356811864" x2="409.705085679044" y1="146.2243802915267" y2="147.2503064653049" /><line stroke="blue" stroke-width="2.0" x1="409.705085679044" x2="403.0858474638618" y1="147.2503064653049" y2="148.4054339806836" /><line stroke="blue" stroke-width="2.0" x1="403.0858474638618" x2="396.5611438967015" y1="148.4054339806836" y2="149.68251161143678" /><line stroke="blue" stroke-width="2.0" x1="396.5611438967015" x2="390.13210383421864" y1="149.68251161143678" y2="151.07436446093413" /><line stroke="blue" stroke-width="2.0" x1="390.13210383421864" x2="383.7993994050125" y1="151.07436446093413" y2="152.5739229501745" /><line stroke="blue" stroke-width="2.0" x1="383.7993994050125" x2="377.5632571694995" y1="152.5739229501745" y2="154.17425107991403" /><line stroke="blue" stroke-width="2.0" x1="377.5632571694995" x2="371.42347100006623" y1="154.17425107991403" y2="155.86857385943028" /><line stroke="blue" stroke-width="2.0" x1="371.42347100006623" x2="365.37941662482456" y1="155.86857385943028" y2="157.6503037978174" /><line stroke="blue" stroke-width="2.0" x1="365.37941662482456" x2="359.43006777201094" y1="157.6503037978174" y2="159.5130663574165" /><line stroke="blue" stroke-width="2.0" x1="359.43006777201094" x2="353.57401384603213" y1="159.5130663574165" y2="161.45072427311084" /><line stroke="blue" stroke-width="2.0" x1="353.57401384603213" x2="347.8094790603845" y1="161.45072427311084" y2="163.45740064567224" /><line stroke="blue" stroke-width="2.0" x1="347.8094790603845" x2="342.13434294718536" y1="163.45740064567224" y2="165.52750072216747" /><line stroke="blue" stroke-width="2.0" x1="342.13434294718536" x2="336.54616215787274" y1="165.52750072216747" y2="167.65573228157552" /><line stroke="blue" stroke-width="2.0" x1="336.54616215787274" x2="331.04219346477663" y1="167.65573228157552" y2="169.8371245492158" /><line stroke="blue" stroke-width="2.0" x1="331.04219346477663" x2="325.61941786875235" y1="169.8371245492158" y2="172.06704556932732" /><line stroke="blue" stroke-width="2.0" x1="325.61941786875235" x2="320.2745657139196" y1="172.06704556932732" y2="174.3412179711445" /><line stroke="blue" stroke-width="2.0" x1="320.2745657139196" x2="315.0041427067803" y1="174.3412179711445" y2="176.65573307005775" /><line stroke="blue" stroke-width="2.0" x1="315.0041427067803" x2="309.8044567336059" y1="176.65573307005775" y2="179.00706325191925" /><line stroke="blue" stroke-width="2.0" x1="309.8044567336059" x2="304.6716453670143" y1="179.00706325191925" y2="181.39207259520992" /><line stroke="blue" stroke-width="2.0" x1="304.6716453670143" x2="299.6017039500924" y1="181.39207259520992" y2="183.80802569261982" /><line stroke="blue" stroke-width="2.0" x1="299.6017039500924" x2="294.59051414428814" y1="183.80802569261982" y2="186.2525946405625" /><line stroke="blue" stroke-width="2.0" x1="294.59051414428814" x2="289.63387282559296" y1="186.2525946405625" y2="188.72386417224334" /><line stroke="blue" stroke-width="2.0" x1="289.63387282559296" x2="284.7275212122763" y1="188.72386417224334" y2="191.22033491707703" /><line stroke="blue" stroke-width="2.0" x1="284.7275212122763" x2="279.86717410661015" y1="191.22033491707703" y2="193.74092477650208" /><line stroke="blue" stroke-width="2.0" x1="279.86717410661015" x2="275.0485491326583" y1="193.74092477650208" y2="196.28496841351784" /><line stroke="blue" stroke-width="2.0" x1="275.0485491326583" x2="270.2673958522755" y1="196.28496841351784" y2="198.8522148605631" /><line stroke="blue" stroke-width="2.0" x1="270.2673958522755" x2="265.5195246419944" y1="198.8522148605631" y2="201.44282325762504" /><line stroke="blue" stroke-width="2.0" x1="265.5195246419944" x2="260.800835214445" y1="201.44282325762504" y2="204.05735673969525" /><line stroke="blue" stroke-width="2.0" x1="260.800835214445" x2="256.10734466937095" y1="204.05735673969525" y2="206.6967744998384" /><line stroke="blue" stroke-width="2.0" x1="256.10734466937095" x2="251.43521496115412" y1="206.6967744998384" y2="209.36242206119152" /><line stroke="blue" stroke-width="2.0" x1="251.43521496115412" x2="246.7807796720466" y1="209.36242206119152" y2="212.05601979813434" /><line stroke="blue" stroke-width="2.0" x1="246.7807796720466" x2="242.14056998300805" y1="212.05601979813434" y2="214.77964975364262" /><line stroke="blue" stroke-width="2.0" x1="242.14056998300805" x2="237.51133973716432" y1="214.77964975364262" y2="217.53574080642272" /><line stroke="blue" stroke-width="2.0" x1="237.51133973716432" x2="232.89008949441646" y1="217.53574080642272" y2="220.32705224781648" /><line stroke="blue" stroke-width="2.0" x1="232.89008949441646" x2="228.27408947963045" y1="220.32705224781648" y2="223.15665583462123" /><line stroke="blue" stroke-width="2.0" x1="228.27408947963045" x2="223.66090133110856" y1="223.15665583462123" y2="226.02791638987617" /><line stroke="blue" stroke-width="2.0" x1="223.66090133110856" x2="219.04839856067372" y1="226.02791638987617" y2="228.94447102929928" /><line stroke="blue" stroke-width="2.0" x1="219.04839856067372" x2="214.43478564166014" y1="228.94447102929928" y2="231.91020709639656" /><line stroke="blue" stroke-width="2.0" x1="214.43478564166014" x2="209.8186156463895" y1="231.91020709639656" y2="234.92923889428653" /><line stroke="blue" stroke-width="2.0" x1="209.8186156463895" x2="205.19880636029603" y1="234.92923889428653" y2="238.00588330697246" /><line stroke="blue" stroke-width="2.0" x1="205.19880636029603" x2="200.5746548057222" y1="238.00588330697246" y2="241.14463440712677" /><line stroke="blue" stroke-width="2.0" x1="200.5746548057222" x2="195.94585011452855" y1="241.14463440712677" y2="244.35013715142338" /><line stroke="blue" stroke-width="2.0" x1="195.94585011452855" x2="191.31248469500736" y1="244.35013715142338" y2="247.62716026803355" /><line stroke="blue" stroke-width="2.0" x1="191.31248469500736" x2="186.67506364515026" y1="247.62716026803355" y2="250.9805684440896" /><line stroke="blue" stroke-width="2.0" x1="186.67506364515026" x2="182.0345123710636" y1="250.9805684440896" y2="254.41529392369557" /><line stroke="blue" stroke-width="2.0" x1="182.0345123710636" x2="177.39218237622433" y1="254.41529392369557" y2="257.9363076294228" /><line stroke="blue" stroke-width="2.0" x1="177.39218237622433" x2="172.74985519430658" y1="257.9363076294228" y2="261.5485899221601" /><line stroke="blue" stroke-width="2.0" x1="172.74985519430658" x2="168.10974444544547" y1="261.5485899221601" y2="265.25710111566934" /><line stroke="blue" stroke-width="2.0" x1="168.10974444544547" x2="163.47449600302647" y1="265.25710111566934" y2="269.066751863267" /><line stroke="blue" stroke-width="2.0" x1="163.47449600302647" x2="158.84718626535664" y1="269.066751863267" y2="272.9823735346366" /><line stroke="blue" stroke-width="2.0" x1="158.84718626535664" x2="154.23131853387073" y1="272.9823735346366" y2="277.0086887009502" /><line stroke="blue" stroke-width="2.0" x1="154.23131853387073" x2="149.6308175068161" y1="277.0086887009502" y2="281.1502818461761" /><line stroke="blue" stroke-width="2.0" x1="149.6308175068161" x2="145.0500219046204" y1="281.1502818461761" y2="285.4115704217138" /><line stroke="blue" stroke-width="2.0" x1="145.0500219046204" x2="140.4936752503491" y1="285.4115704217138" y2="289.7967763603116" /><line stroke="blue" stroke-width="2.0" x1="140.4936752503491" x2="135.96691483577575" y1="289.7967763603116" y2="294.3098981635972" /><line stroke="blue" stroke-width="2.0" x1="135.96691483577575" x2="131.47525891059433" y1="294.3098981635972" y2="298.95468367549245" /><line stroke="blue" stroke-width="2.0" x1="131.47525891059433" x2="127.02459213916578" y1="298.95468367549245" y2="303.73460365129466" /><line stroke="blue" stroke-width="2.0" x1="127.02459213916578" x2="122.62114937589408" y1="303.73460365129466" y2="308.65282622930516" /><line stroke="blue" stroke-width="2.0" x1="122.62114937589408" x2="118.2714978168367" y1="308.65282622930516" y2="313.712192408572" /><line stroke="blue" stroke-width="2.0" x1="118.2714978168367" x2="113.98251759145091" y1="313.712192408572" y2="318.91519263261006" /><line stroke="blue" stroke-width="2.0" x1="113.98251759145091" x2="109.76138086443353" y1="318.91519263261006" y2="324.26394457487584" /><line stroke="blue" stroke-width="2.0" x1="109.76138086443353" x2="105.61552952340824" y1="324.26394457487584" y2="329.7601722173221" /><line stroke="blue" stroke-width="2.0" x1="105.61552952340824" x2="101.55265153372932" y1="329.7601722173221" y2="335.4051863085598" /><line stroke="blue" stroke-width="2.0" x1="101.55265153372932" x2="97.58065604687422" y1="335.4051863085598" y2="341.19986628302263" /><line stroke="blue" stroke-width="2.0" x1="97.58065604687422" x2="93.70764735378592" y1="341.19986628302263" y2="347.1446437170936" /><line stroke="blue" stroke-width="2.0" x1="93.70764735378592" x2="89.9418977790663" y1="347.1446437170936" y2="353.2394873924145" /><line stroke="blue" stroke-width="2.0" x1="89.9418977790663" x2="86.29181961610377" y1="353.2394873924145" y2="359.48389003060595" /><line stroke="blue" stroke-width="2.0" x1="86.29181961610377" x2="82.76593620702367" y1="359.48389003060595" y2="365.87685675737356" /><line stroke="blue" stroke-width="2.0" x1="82.76593620702367" x2="79.37285227477102" y1="365.87685675737356" y2="372.41689534750816" /><line stroke="blue" stroke-width="2.0" x1="79.37285227477102" x2="76.12122361764284" y1="372.41689534750816" y2="379.10200829561825" /><line stroke="blue" stroke-width="2.0" x1="76.12122361764284" x2="73.01972627919173" y1="379.10200829561825" y2="385.9296867505902" /><line stroke="blue" stroke-width="2.0" x1="73.01972627919173" x2="70.07702530859342" y1="385.9296867505902" y2="392.8969063447831" /><line stroke="blue" stroke-width="2.0" x1="70.07702530859342" x2="-0.5443302891098747" y1="392.8969063447831" y2="-3.7257249923344102" /><line stroke="blue" stroke-width="2.0" x1="-3.455669042475095" x2="67.30174322831597" y1="3.7257249781850086" y2="400.00012494185034" /><line stroke="blue" stroke-width="2.0" x1="67.30174322831597" x2="64.70242832722998" y1="400.00012494185034" y2="407.23528231987564" /><line stroke="blue" stroke-width="2.0" x1="64.70242832722998" x2="62.28752289815774" y1="407.23528231987564" y2="414.5978017992344" /><line stroke="blue" stroke-width="2.0" x1="62.28752289815774" x2="60.0653315392697" y1="414.5978017992344" y2="422.0825938172788" /><line stroke="blue" stroke-width="2.0" x1="60.0653315392697" x2="58.043989638700914" y1="422.0825938172788" y2="429.6840614446143" /><line stroke="blue" stroke-width="2.0" x1="58.043989638700914" x2="56.231432161268295" y1="429.6840614446143" y2="437.39610783042554" /><line stroke="blue" stroke-width="2.0" x1="56.231432161268295" x2="54.635362855235584" y1="437.39610783042554" y2="445.2121455570345" /><line stroke="blue" stroke-width="2.0" x1="54.635362855235584" x2="53.26322399569718" y1="445.2121455570345" y2="453.1251078766764" /><line stroke="blue" stroke-width="2.0" x1="53.26322399569718" x2="52.12216677932506" y1="453.1251078766764" y2="461.12746179637327" /><line stroke="blue" stroke-width="2.0" x1="52.12216677932506" x2="51.21902248298052" y1="461.12746179637327" y2="469.21122296980104" /><line stroke="blue" stroke-width="2.0" x1="51.21902248298052" x2="50.56027449601007" y1="469.21122296980104" y2="477.36797234822166" /><line stroke="blue" stroke-width="2.0" x1="50.56027449601007" x2="50.152031332960846" y1="477.36797234822166" y2="485.5888745358877" /><line stroke="blue" stroke-width="2.0" x1="50.152031332960846" x2="50.00000072995471" y1="485.5888745358877" y2="493.8646977888789" /><line stroke="blue" stroke-width="2.0" x1="50.00000072995471" x2="50.10946492408114" y1="493.8646977888789" y2="502.1858355900951" /><line stroke="blue" stroke-width="2.0" x1="50.10946492408114" x2="50.48525721091057" y1="502.1858355900951" y2="510.5423297271524" /><line stroke="blue" stroke-width="2.0" x1="50.48525721091057" x2="51.13173987061599" y1="510.5423297271524" y2="518.9238947942129" /><line stroke="blue" stroke-width="2.0" x1="51.13173987061599" x2="52.052783548230245" y1="518.9238947942129" y2="527.3199440333678" /><line stroke="blue" stroke-width="2.0" x1="52.052783548230245" x2="53.25174816828637" y1="527.3199440333678" y2="535.7196164260794" /><line stroke="blue" stroke-width="2.0" x1="53.25174816828637" x2="54.731465458504275" y1="535.7196164260794" y2="544.1118049404199" /><line stroke="blue" stroke-width="2.0" x1="54.731465458504275" x2="56.49422315131718" y1="544.1118049404199" y2="552.485185835423" /><line stroke="blue" stroke-width="2.0" x1="56.49422315131718" x2="58.5417509259056" y1="552.485185835423" y2="560.828248919798" /><line stroke="blue" stroke-width="2.0" x1="58.5417509259056" x2="60.87520814703669" y1="560.828248919798" y2="569.1293286585989" /><line stroke="blue" stroke-width="2.0" x1="60.87520814703669" x2="63.49517345043091" y1="569.1293286585989" y2="577.3766360181419" /><line stroke="blue" stroke-width="2.0" x1="63.49517345043091" x2="66.40163621760509" y1="577.3766360181419" y2="585.5582909366143" /><line stroke="blue" stroke-width="2.0" x1="66.40163621760509" x2="69.59398997620872" y1="585.5582909366143" y2="593.6623553053543" /><line stroke="blue" stroke-width="2.0" x1="69.59398997620872" x2="73.07102775479964" y1="593.6623553053543" y2="601.676866343764" /><line stroke="blue" stroke-width="2.0" x1="73.07102775479964" x2="76.83093941382069" y1="601.676866343764" y2="609.5898702492339" /><line stroke="blue" stroke-width="2.0" x1="76.83093941382069" x2="80.87131096727381" y1="609.5898702492339" y2="617.3894560023086" /><line stroke="blue" stroke-width="2.0" x1="80.87131096727381" x2="85.18912590226171" y1="617.3894560023086" y2="625.0637892066321" /><line stroke="blue" stroke-width="2.0" x1="85.18912590226171" x2="89.78076849621311" y1="625.0637892066321" y2="632.6011458429588" /><line stroke="blue" stroke-width="2.0" x1="89.78076849621311" x2="94.64202912425236" y1="632.6011458429588" y2="639.9899458167228" /><line stroke="blue" stroke-width="2.0" x1="94.64202912425236" x2="99.76811154184117" y1="639.9899458167228" y2="647.2187861793074" /><line stroke="blue" stroke-width="2.0" x1="99.76811154184117" x2="105.15364212054371" y1="647.2187861793074" y2="654.2764739042602" /><line stroke="blue" stroke-width="2.0" x1="105.15364212054371" x2="110.79268100756616" y1="654.2764739042602" y2="661.152058101237" /><line stroke="blue" stroke-width="2.0" x1="110.79268100756616" x2="116.6787351726334" y1="661.152058101237" y2="667.8348615524405" /><line stroke="blue" stroke-width="2.0" x1="116.6787351726334" x2="122.80477329880563" y1="667.8348615524405" y2="674.3145114587346" /><line stroke="blue" stroke-width="2.0" x1="122.80477329880563" x2="129.1632424670429" y1="674.3145114587346" y2="680.580969285436" /><line stroke="blue" stroke-width="2.0" x1="129.1632424670429" x2="135.74608657771188" y1="680.580969285436" y2="686.6245596010384" /><line stroke="blue" stroke-width="2.0" x1="135.74608657771188" x2="142.54476644582866" y1="686.6245596010384" y2="692.4359978057566" /><line stroke="blue" stroke-width="2.0" x1="142.54476644582866" x2="149.55028150066153" y1="692.4359978057566" y2="698.0064166508063" /><line stroke="blue" stroke-width="2.0" x1="149.55028150066153" x2="156.75319301441385" y1="698.0064166508063" y2="703.3273914537325" /><line stroke="blue" stroke-width="2.0" x1="156.75319301441385" x2="164.1436487790654" y1="703.3273914537325" y2="708.3909639198423" /><line stroke="blue" stroke-width="2.0" x1="164.1436487790654" x2="171.7114091451318" y1="708.3909639198423" y2="713.1896644848858" /><line stroke="blue" stroke-width="2.0" x1="171.7114091451318" x2="179.44587433108563" y1="713.1896644848858" y2="717.7165330995294" /><line stroke="blue" stroke-width="2.0" x1="179.44587433108563" x2="187.3361129075135" y1="717.7165330995294" y2="721.9651383818581" /><line stroke="blue" stroke-width="2.0" x1="187.3361129075135" x2="195.37089135577236" y1="721.9651383818581" y2="725.9295950701193" /><line stroke="blue" stroke-width="2.0" x1="195.37089135577236" x2="203.53870459696563" y1="725.9295950701193" y2="729.6045797141428" /><line stroke="blue" stroke-width="2.0" x1="203.53870459696563" x2="211.8278073835086" y1="729.6045797141428" y2="732.9853445503255" /><line stroke="blue" stroke-width="2.0" x1="211.8278073835086" x2="220.22624644240193" y1="732.9853445503255" y2="736.0677295117239" /><line stroke="blue" stroke-width="2.0" x1="220.22624644240193" x2="228.72189325659193" y1="736.0677295117239" y2="738.8481723316437" /><line stroke="blue" stroke-width="2.0" x1="228.72189325659193" x2="237.30247736848233" y1="738.8481723316437" y2="741.3237167060998" /><line stroke="blue" stroke-width="2.0" x1="237.30247736848233" x2="245.95562008778197" y1="741.3237167060998" y2="743.492018487648" /><line stroke="blue" stroke-width="2.0" x1="245.95562008778197" x2="254.6688684844207" y1="743.492018487648" y2="745.3513498903068" /><line stroke="blue" stroke-width="2.0" x1="254.6688684844207" x2="263.4297295462745" y1="745.3513498903068" y2="746.9006016925903" /><line stroke="blue" stroke-width="2.0" x1="263.4297295462745" x2="272.2257043808834" y1="746.9006016925903" y2="748.1392834330119" /><line stroke="blue" stroke-width="2.0" x1="272.2257043808834" x2="281.0443223402461" y1="748.1392834330119" y2="749.0675215997869" /><line stroke="blue" stroke-width="2.0" x1="281.0443223402461" x2="289.87317494812123" y1="749.0675215997869" y2="749.6860558238161" /><line stroke="blue" stroke-width="2.0" x1="289.87317494812123" x2="298.69994951006623" y1="749.6860558238161" y2="749.9962330913505" /><line stroke="blue" stroke-width="2.0" x1="298.69994951006623" x2="307.51246228768485" y1="749.9962330913505" y2="750.0" /><line stroke="blue" stroke-width="2.0" x1="307.51246228768485" x2="316.2986911202409" y1="750.0" y2="749.6998930889112" /><line stroke="blue" stroke-width="2.0" x1="316.2986911202409" x2="325.0468073789133" y1="749.6998930889112" y2="749.0990272809909" /><line stroke="blue" stroke-width="2.0" x1="325.0468073789133" x2="333.7452071415208" y1="749.0990272809909" y2="748.2010824819602" /><line stroke="blue" stroke-width="2.0" x1="333.7452071415208" x2="342.38254147849625" y1="748.2010824819602" y2="747.0102883877588" /><line stroke="blue" stroke-width="2.0" x1="342.38254147849625" x2="350.9477457442735" y1="747.0102883877588" y2="745.5314075583635" /><line stroke="blue" stroke-width="2.0" x1="350.9477457442735" x2="359.43006777200526" y1="745.5314075583635" y2="743.7697168224074" /><line stroke="blue" stroke-width="2.0" x1="359.43006777200526" x2="367.8190948736761" y1="743.7697168224074" y2="741.73098708307" /><line stroke="blue" stroke-width="2.0" x1="367.8190948736761" x2="376.10477955217965" y1="741.73098708307" y2="739.421461601517" /><line stroke="blue" stroke-width="2.0" x1="376.10477955217965" x2="384.2774638367848" y1="739.421461601517" y2="736.8478328397067" /><line stroke="blue" stroke-width="2.0" x1="384.2774638367848" x2="392.32790215859393" y1="736.8478328397067" y2="734.0172179495898" /><line stroke="blue" stroke-width="2.0" x1="392.32790215859393" x2="400.2472826880892" y1="734.0172179495898" y2="730.9371330006296" /><line stroke="blue" stroke-width="2.0" x1="400.2472826880892" x2="408.02724706264087" y1="730.9371330006296" y2="727.6154660421096" /><line stroke="blue" stroke-width="2.0" x1="408.02724706264087" x2="415.6599084378962" y1="727.6154660421096" y2="724.0604491008896" /><line stroke="blue" stroke-width="2.0" x1="415.6599084378962" x2="423.1378678032592" y1="724.0604491008896" y2="720.2806292190631" /><line stroke="blue" stroke-width="2.0" x1="423.1378678032592" x2="430.45422850817585" y1="720.2806292190631" y2="716.2848386393946" /><line stroke="blue" stroke-width="2.0" x1="430.45422850817585" x2="437.6026089526501" y1="716.2848386393946" y2="712.0821642494141" /><line stroke="blue" stroke-width="2.0" x1="437.6026089526501" x2="444.57715340228566" y1="712.0821642494141" y2="707.6819163976451" /><line stroke="blue" stroke-width="2.0" x1="444.57715340228566" x2="451.37254089517415" y1="707.6819163976451" y2="703.0935971975969" /><line stroke="blue" stroke-width="2.0" x1="451.37254089517415" x2="457.9839922150817" y1="703.0935971975969" y2="698.3268684368942" /><line stroke="blue" stroke-width="2.0" x1="457.9839922150817" x2="464.4072749126216" y1="698.3268684368942" y2="693.3915192101986" /><line stroke="blue" stroke-width="2.0" x1="464.4072749126216" x2="470.6387063633898" y1="693.3915192101986" y2="688.2974333954247" /><line stroke="blue" stroke-width="2.0" x1="470.6387063633898" x2="476.67515485937184" y1="688.2974333954247" y2="683.0545570931507" /><line stroke="blue" stroke-width="2.0" x1="476.67515485937184" x2="482.514038737269" y1="683.0545570931507" y2="677.6728661490677" /><line stroke="blue" stroke-width="2.0" x1="482.514038737269" x2="488.15332355471435" y1="677.6728661490677" y2="672.1623338788102" /><line stroke="blue" stroke-width="2.0" x1="488.15332355471435" x2="493.59151733261865" y1="672.1623338788102" y2="666.5328991135616" /><line stroke="blue" stroke-width="2.0" x1="493.59151733261865" x2="498.8276638890958" y1="666.5328991135616" y2="660.7944346834304" /><line stroke="blue" stroke-width="2.0" x1="498.8276638890958" x2="503.8613342975116" y1="660.7944346834304" y2="654.9567164537654" /><line stroke="blue" stroke-width="2.0" x1="503.8613342975116" x2="0.9999127510409089" y1="654.9567164537654" y2="-1.731903337322666" /><line stroke="blue" stroke-width="2.0" x1="0.9999127510409089" x2="508.69261650818027" y1="-1.731903337322666" y2="649.0293930273084" /><line stroke="blue" stroke-width="2.0" x1="508.69261650818027" x2="513.3221031800485" y1="649.0293930273084" y2="643.0219562224045" /><line stroke="blue" stroke-width="2.0" x1="513.3221031800485" x2="517.7508777753549" y1="643.0219562224045" y2="636.9437124343804" /><line stroke="blue" stroke-width="2.0" x1="517.7508777753549" x2="521.9804989766866" y1="636.9437124343804" y2="630.8037549837127" /><line stroke="blue" stroke-width="2.0" x1="521.9804989766866" x2="526.0129834920692" y1="630.8037549837127" y2="624.610937550709" /><line stroke="blue" stroke-width="2.0" x1="526.0129834920692" x2="529.850787319683" y1="624.610937550709" y2="618.373848792176" /><line stroke="blue" stroke-width="2.0" x1="529.850787319683" x2="533.4967855494858" y1="618.373848792176" y2="612.1007882309241" /><line stroke="blue" stroke-width="2.0" x1="533.4967855494858" x2="536.954250784414" y1="612.1007882309241" y2="605.7997435040018" /><line stroke="blue" stroke-width="2.0" x1="536.954250784414" x2="540.2268302689065" y1="605.7997435040018" y2="599.4783690502848" /><line stroke="blue" stroke-width="2.0" x1="540.2268302689065" x2="543.3185218172425" y1="599.4783690502848" y2="593.1439663124598" /><line stroke="blue" stroke-width="2.0" x1="543.3185218172425" x2="546.2336486385684" y1="593.1439663124598" y2="586.8034655225902" /><line stroke="blue" stroke-width="2.0" x1="546.2336486385684" x2="548.9768331595142" y1="586.8034655225902" y2="580.4634091343355" /><line stroke="blue" stroke-width="2.0" x1="548.9768331595142" x2="551.5529699489357" y1="580.4634091343355" y2="574.1299369585562" /><line stroke="blue" stroke-width="2.0" x1="551.5529699489357" x2="553.9671978525591" y1="574.1299369585562" y2="567.8087730524661" /><line stroke="blue" stroke-width="2.0" x1="553.9671978525591" x2="556.2248714481391" y1="567.8087730524661" y2="561.505214405763" /><line stroke="blue" stroke-width="2.0" x1="556.2248714481391" x2="558.3315319341466" y1="561.505214405763" y2="555.2241214602583" /><line stroke="blue" stroke-width="2.0" x1="558.3315319341466" x2="560.2928775669948" y1="555.2241214602583" y2="548.969910492492" /><line stroke="blue" stroke-width="2.0" x1="560.2928775669948" x2="562.1147337633483" y1="548.969910492492" y2="542.746547881679" /><line stroke="blue" stroke-width="2.0" x1="562.1147337633483" x2="563.8030229851751" y1="542.746547881679" y2="536.5575462780989" /><line stroke="blue" stroke-width="2.0" x1="563.8030229851751" x2="565.3637345258506" y1="536.5575462780989" y2="530.4059626797775" /><line stroke="blue" stroke-width="2.0" x1="565.3637345258506" x2="566.8028943158447" y1="530.4059626797775" y2="524.2943984179939" /><line stroke="blue" stroke-width="2.0" x1="566.8028943158447" x2="568.1265348662704" y1="524.2943984179939" y2="518.2250010448527" /><line stroke="blue" stroke-width="2.0" x1="568.1265348662704" x2="569.3406654679028" y1="518.2250010448527" y2="512.1994681088886" /><line stroke="blue" stroke-width="2.0" x1="569.3406654679028" x2="570.4512427621299" y1="512.1994681088886" y2="506.2190527974535" /><line stroke="blue" stroke-width="2.0" x1="570.4512427621299" x2="571.4641417987345" y1="506.2190527974535" y2="500.2845714175103" /><line stroke="blue" stroke-width="2.0" x1="571.4641417987345" x2="572.3851276933963" y1="500.2845714175103" y2="494.3964126794373" /><line stroke="blue" stroke-width="2.0" x1="572.3851276933963" x2="573.219827995365" y1="494.3964126794373" y2="488.554548741562" /><line stroke="blue" stroke-width="2.0" x1="573.219827995365" x2="573.973705872909" y1="488.554548741562" y2="482.7585479664322" /><line stroke="blue" stroke-width="2.0" x1="573.973705872909" x2="574.652034220877" y1="482.7585479664322" y2="477.0075893332982" /><line stroke="blue" stroke-width="2.0" x1="574.652034220877" x2="575.2598707910613" y1="477.0075893332982" y2="471.3004784449627" /><line stroke="blue" stroke-width="2.0" x1="575.2598707910613" x2="575.8020344420119" y1="471.3004784449627" y2="465.6356650610858" /><line stroke="blue" stroke-width="2.0" x1="575.8020344420119" x2="576.283082600552" y1="465.6356650610858" y2="460.0112620842033" /><line stroke="blue" stroke-width="2.0" x1="576.283082600552" x2="576.707290022493" y1="460.0112620842033" y2="454.42506591918897" /><line stroke="blue" stroke-width="2.0" x1="576.707290022493" x2="577.0786289349675" y1="454.42506591918897" y2="448.8745781216548" /><line stroke="blue" stroke-width="2.0" x1="577.0786289349675" x2="577.4007506374052" y1="448.8745781216548" y2="443.357028245874" /><line stroke="blue" stroke-width="2.0" x1="577.4007506374052" x2="577.6769686324933" y1="443.357028245874" y2="437.86939779824434" /><line stroke="blue" stroke-width="2.0" x1="577.6769686324933" x2="577.9102433525093" y1="437.86939779824434" y2="432.4084451980971" /><line stroke="blue" stroke-width="2.0" x1="577.9102433525093" x2="578.1031685402097" y1="432.4084451980971" y2="426.9707316438226" /><line stroke="blue" stroke-width="2.0" x1="578.1031685402097" x2="578.2579593370407" y1="426.9707316438226" y2="421.55264777883735" /><line stroke="blue" stroke-width="2.0" x1="578.2579593370407" x2="578.3764421248005" y1="421.55264777883735" y2="416.1504410488686" /><line stroke="blue" stroke-width="2.0" x1="578.3764421248005" x2="578.4600461601005" y1="416.1504410488686" y2="410.76024363940695" /><line stroke="blue" stroke-width="2.0" x1="578.4600461601005" x2="578.509797034007" y1="410.76024363940695" y2="405.3781008799645" /><line stroke="blue" stroke-width="2.0" x1="578.509797034007" x2="578.5263119821894" y1="405.3781008799645" y2="400.00000000000006" /><line stroke="blue" stroke-width="2.0" x1="578.5263119821894" x2="578.5097970637283" y1="400.00000000000006" y2="394.6218991200355" /><line stroke="blue" stroke-width="2.0" x1="578.5097970637283" x2="578.4600462195029" y1="394.6218991200355" y2="389.23975636059305" /><line stroke="blue" stroke-width="2.0" x1="578.4600462195029" x2="578.3764422138034" y1="389.23975636059305" y2="383.8495589511314" /><line stroke="blue" stroke-width="2.0" x1="578.3764422138034" x2="578.2579594555235" y1="383.8495589511314" y2="378.44735222116265" /><line stroke="blue" stroke-width="2.0" x1="578.2579594555235" x2="578.103168688012" y1="378.44735222116265" y2="373.0292683561774" /><line stroke="blue" stroke-width="2.0" x1="578.103168688012" x2="577.9102435294304" y1="373.0292683561774" y2="367.59155480190293" /><line stroke="blue" stroke-width="2.0" x1="577.9102435294304" x2="577.6769688382939" y1="367.59155480190293" y2="362.1306022017557" /><line stroke="blue" stroke-width="2.0" x1="577.6769688382939" x2="577.4007508718062" y1="362.1306022017557" y2="356.64297175412605" /><line stroke="blue" stroke-width="2.0" x1="577.4007508718062" x2="577.0786291976511" y1="356.64297175412605" y2="351.1254218783452" /><line stroke="blue" stroke-width="2.0" x1="577.0786291976511" x2="576.7072903131034" y1="351.1254218783452" y2="345.57493408081103" /><line stroke="blue" stroke-width="2.0" x1="576.7072903131034" x2="576.2830829186952" y1="345.57493408081103" y2="339.9887379157968" /><line stroke="blue" stroke-width="2.0" x1="576.2830829186952" x2="575.8020347872567" y1="339.9887379157968" y2="334.3643349389143" /><line stroke="blue" stroke-width="2.0" x1="575.8020347872567" x2="575.2598711629402" y1="334.3643349389143" y2="328.69952155503734" /><line stroke="blue" stroke-width="2.0" x1="575.2598711629402" x2="574.6520346188856" y1="328.69952155503734" y2="322.99241066670186" /><line stroke="blue" stroke-width="2.0" x1="574.6520346188856" x2="573.9737062965081" y1="322.99241066670186" y2="317.2414520335678" /><line stroke="blue" stroke-width="2.0" x1="573.9737062965081" x2="573.2198284439805" y1="317.2414520335678" y2="311.4454512584381" /><line stroke="blue" stroke-width="2.0" x1="573.2198284439805" x2="572.3851281664201" y1="311.4454512584381" y2="305.6035873205628" /><line stroke="blue" stroke-width="2.0" x1="572.3851281664201" x2="571.4641422955258" y1="305.6035873205628" y2="299.7154285824897" /><line stroke="blue" stroke-width="2.0" x1="571.4641422955258" x2="570.4512432820154" y1="299.7154285824897" y2="293.78094720254654" /><line stroke="blue" stroke-width="2.0" x1="570.4512432820154" x2="569.3406660101779" y1="293.78094720254654" y2="287.8005318911114" /><line stroke="blue" stroke-width="2.0" x1="569.3406660101779" x2="568.1265354302" y1="287.8005318911114" y2="281.77499895514734" /><line stroke="blue" stroke-width="2.0" x1="568.1265354302" x2="566.8028949006646" y1="281.77499895514734" y2="275.70560158200624" /><line stroke="blue" stroke-width="2.0" x1="566.8028949006646" x2="565.3637351307685" y1="275.70560158200624" y2="269.59403732022247" /><line stroke="blue" stroke-width="2.0" x1="565.3637351307685" x2="563.8030236093709" y1="269.59403732022247" y2="263.4424537219011" /><line stroke="blue" stroke-width="2.0" x1="563.8030236093709" x2="562.1147344059764" y1="263.4424537219011" y2="257.2534521183211" /><line stroke="blue" stroke-width="2.0" x1="562.1147344059764" x2="560.2928782271838" y1="257.2534521183211" y2="251.03008950750814" /><line stroke="blue" stroke-width="2.0" x1="560.2928782271838" x2="558.3315326110021" y1="251.03008950750814" y2="244.77587853974183" /><line stroke="blue" stroke-width="2.0" x1="558.3315326110021" x2="556.2248721407439" y1="244.77587853974183" y2="238.4947855942371" /><line stroke="blue" stroke-width="2.0" x1="556.2248721407439" x2="553.9671985599746" y1="238.4947855942371" y2="232.191226947534" /><line stroke="blue" stroke-width="2.0" x1="553.9671985599746" x2="551.552970670203" y1="232.191226947534" y2="225.8700630414438" /><line stroke="blue" stroke-width="2.0" x1="551.552970670203" x2="548.976833893656" y1="225.8700630414438" y2="219.5365908656646" /><line stroke="blue" stroke-width="2.0" x1="548.976833893656" x2="546.2336493845895" y1="219.5365908656646" y2="213.19653447740995" /><line stroke="blue" stroke-width="2.0" x1="546.2336493845895" x2="543.318522574132" y1="213.19653447740995" y2="206.85603368754016" /><line stroke="blue" stroke-width="2.0" x1="543.318522574132" x2="540.2268310356387" y1="206.85603368754016" y2="200.52163094971536" /><line stroke="blue" stroke-width="2.0" x1="540.2268310356387" x2="536.9542515599499" y1="200.52163094971536" y2="194.20025649599836" /><line stroke="blue" stroke-width="2.0" x1="536.9542515599499" x2="533.4967863327743" y1="194.20025649599836" y2="187.89921176907592" /><line stroke="blue" stroke-width="2.0" x1="533.4967863327743" x2="529.8507881096624" y1="187.89921176907592" y2="181.62615120782414" /><line stroke="blue" stroke-width="2.0" x1="529.8507881096624" x2="526.012984287669" y1="181.62615120782414" y2="175.38906244929103" /><line stroke="blue" stroke-width="2.0" x1="526.012984287669" x2="521.9804997768285" y1="175.38906244929103" y2="169.19624501628732" /><line stroke="blue" stroke-width="2.0" x1="521.9804997768285" x2="517.7508785789547" y1="169.19624501628732" y2="163.05628756561964" /><line stroke="blue" stroke-width="2.0" x1="517.7508785789547" x2="513.3221039860173" y1="163.05628756561964" y2="156.97804377759564" /><line stroke="blue" stroke-width="2.0" x1="513.3221039860173" x2="508.6926173154254" y1="156.97804377759564" y2="150.97060697269183" /><line stroke="blue" stroke-width="2.0" x1="508.6926173154254" x2="3.527111067349464" y1="150.97060697269183" y2="4.832430501114397" /><line stroke="blue" stroke-width="2.0" x1="-1.5272855506294065" x2="503.86133510493926" y1="-1.3686238308652665" y2="145.04328354623476" /><line stroke="blue" stroke-width="2.0" x1="503.86133510493926" x2="498.8276646956117" y1="145.04328354623476" y2="139.20556531656962" /><line stroke="blue" stroke-width="2.0" x1="498.8276646956117" x2="493.59151813712987" y1="139.20556531656962" y2="133.46710088643852" /><line stroke="blue" stroke-width="2.0" x1="493.59151813712987" x2="488.15332435613055" y1="133.46710088643852" y2="127.83766612118984" /><line stroke="blue" stroke-width="2.0" x1="488.15332435613055" x2="482.514039534504" y1="127.83766612118984" y2="122.32713385093246" /><line stroke="blue" stroke-width="2.0" x1="482.514039534504" x2="476.67515565134534" y1="122.32713385093246" y2="116.94544290684928" /><line stroke="blue" stroke-width="2.0" x1="476.67515565134534" x2="470.6387071490284" y1="116.94544290684928" y2="111.70256660457505" /><line stroke="blue" stroke-width="2.0" x1="470.6387071490284" x2="464.4072756908606" y1="111.70256660457505" y2="106.60848078980143" /><line stroke="blue" stroke-width="2.0" x1="464.4072756908606" x2="457.9839929848664" y1="106.60848078980143" y2="101.67313156310581" /><line stroke="blue" stroke-width="2.0" x1="457.9839929848664" x2="451.37254165546136" y1="101.67313156310581" y2="96.90640280240314" /><line stroke="blue" stroke-width="2.0" x1="451.37254165546136" x2="444.577154152045" y1="96.90640280240314" y2="92.31808360235505" /><line stroke="blue" stroke-width="2.0" x1="444.577154152045" x2="437.6026096908655" y1="92.31808360235505" y2="87.91783575058594" /><line stroke="blue" stroke-width="2.0" x1="437.6026096908655" x2="430.45422923384683" y1="87.91783575058594" y2="83.7151613606054" /><line stroke="blue" stroke-width="2.0" x1="430.45422923384683" x2="423.1378685154023" y1="83.7151613606054" y2="79.71937078093686" /><line stroke="blue" stroke-width="2.0" x1="423.1378685154023" x2="415.65990913554634" y1="79.71937078093686" y2="75.93955089911037" /><line stroke="blue" stroke-width="2.0" x1="415.65990913554634" x2="408.02724774485256" y1="75.93955089911037" y2="72.38453395789031" /><line stroke="blue" stroke-width="2.0" x1="408.02724774485256" x2="400.24728335393786" y1="72.38453395789031" y2="69.06286699937039" /><line stroke="blue" stroke-width="2.0" x1="400.24728335393786" x2="392.3279028071773" y1="69.06286699937039" y2="65.98278205040992" /><line stroke="blue" stroke-width="2.0" x1="392.3279028071773" x2="384.27746446722387" y1="65.98278205040992" y2="63.15216716029329" /><line stroke="blue" stroke-width="2.0" x1="384.27746446722387" x2="376.1047801636199" y1="63.15216716029329" y2="60.57853839848303" /><line stroke="blue" stroke-width="2.0" x1="376.1047801636199" x2="367.819095465289" y1="60.57853839848303" y2="58.26901291693002" /><line stroke="blue" stroke-width="2.0" x1="367.819095465289" x2="359.43006834298905" y1="58.26901291693002" y2="56.23028317759258" /><line stroke="blue" stroke-width="2.0" x1="359.43006834298905" x2="350.9477462938543" y1="56.23028317759258" y2="54.468592441636474" /><line stroke="blue" stroke-width="2.0" x1="350.9477462938543" x2="342.3825420059293" y1="54.468592441636474" y2="52.98971161224108" /><line stroke="blue" stroke-width="2.0" x1="342.3825420059293" x2="333.74520764609133" y1="52.98971161224108" y2="51.79891751803984" /><line stroke="blue" stroke-width="2.0" x1="333.74520764609133" x2="325.0468078599375" y1="51.79891751803984" y2="50.90097271900902" /><line stroke="blue" stroke-width="2.0" x1="325.0468078599375" x2="316.29869157706685" y1="50.90097271900902" y2="50.30010691108873" /><line stroke="blue" stroke-width="2.0" x1="316.29869157706685" x2="307.51246271969376" y1="50.30010691108873" y2="49.999999999999886" /><line stroke="blue" stroke-width="2.0" x1="307.51246271969376" x2="298.69994991667204" y1="49.999999999999886" y2="50.00376690864948" /><line stroke="blue" stroke-width="2.0" x1="298.69994991667204" x2="289.87317532877347" y1="50.00376690864948" y2="50.31394417618378" /><line stroke="blue" stroke-width="2.0" x1="289.87317532877347" x2="281.0443226944283" y1="50.31394417618378" y2="50.93247840021297" /><line stroke="blue" stroke-width="2.0" x1="281.0443226944283" x2="272.22570470811615" y1="50.93247840021297" y2="51.86071656698823" /><line stroke="blue" stroke-width="2.0" x1="272.22570470811615" x2="263.4297298461137" y1="51.86071656698823" y2="53.09939830740973" /><line stroke="blue" stroke-width="2.0" x1="263.4297298461137" x2="254.66886875646006" y1="53.09939830740973" y2="54.64865010969311" /><line stroke="blue" stroke-width="2.0" x1="254.66886875646006" x2="245.95562033165348" y1="54.64865010969311" y2="56.507981512351876" /><line stroke="blue" stroke-width="2.0" x1="245.95562033165348" x2="237.30247758385482" y1="56.507981512351876" y2="58.676283293900156" /><line stroke="blue" stroke-width="2.0" x1="237.30247758385482" x2="228.72189344317414" y1="58.676283293900156" y2="61.15182766835608" /><line stroke="blue" stroke-width="2.0" x1="228.72189344317414" x2="220.22624659994068" y1="61.15182766835608" y2="63.932270488276004" /><line stroke="blue" stroke-width="2.0" x1="220.22624659994068" x2="211.8278075117907" y1="63.932270488276004" y2="67.01465544967425" /><line stroke="blue" stroke-width="2.0" x1="211.8278075117907" x2="203.53870469581665" y1="67.01465544967425" y2="70.39542028585709" /><line stroke="blue" stroke-width="2.0" x1="203.53870469581665" x2="195.37089142505891" y1="70.39542028585709" y2="74.07040492988051" /><line stroke="blue" stroke-width="2.0" x1="195.37089142505891" x2="187.3361129471411" y1="74.07040492988051" y2="78.0348616181418" /><line stroke="blue" stroke-width="2.0" x1="187.3361129471411" x2="179.44587434100117" y1="78.0348616181418" y2="82.28346690047033" /><line stroke="blue" stroke-width="2.0" x1="179.44587434100117" x2="171.71140912532132" y1="82.28346690047033" y2="86.81033551511405" /><line stroke="blue" stroke-width="2.0" x1="171.71140912532132" x2="164.1436487295556" y1="86.81033551511405" y2="91.6090360801577" /><line stroke="blue" stroke-width="2.0" x1="164.1436487295556" x2="156.75319293527252" y1="91.6090360801577" y2="96.67260854626727" /><line stroke="blue" stroke-width="2.0" x1="156.75319293527252" x2="149.55028139199538" y1="96.67260854626727" y2="101.99358334919373" /><line stroke="blue" stroke-width="2.0" x1="149.55028139199538" x2="142.5447663077854" y1="101.99358334919373" y2="107.56400219424324" /><line stroke="blue" stroke-width="2.0" x1="142.5447663077854" x2="135.74608641047843" y1="107.56400219424324" y2="113.37544039896136" /><line stroke="blue" stroke-width="2.0" x1="135.74608641047843" x2="129.16324227084613" y1="113.37544039896136" y2="119.41903071456363" /><line stroke="blue" stroke-width="2.0" x1="129.16324227084613" x2="122.80477307391094" y1="119.41903071456363" y2="125.68548854126516" /><line stroke="blue" stroke-width="2.0" x1="122.80477307391094" x2="116.67873491934596" y1="125.68548854126516" y2="132.16513844755912" /><line stroke="blue" stroke-width="2.0" x1="116.67873491934596" x2="110.79268072622884" y1="132.16513844755912" y2="138.84794189876277" /><line stroke="blue" stroke-width="2.0" x1="110.79268072622884" x2="105.1536418115382" y1="138.84794189876277" y2="145.7235260957392" /><line stroke="blue" stroke-width="2.0" x1="105.1536418115382" x2="99.76811120558597" y1="145.7235260957392" y2="152.78121382069253" /><line stroke="blue" stroke-width="2.0" x1="99.76811120558597" x2="94.64202876120314" y1="152.78121382069253" y2="160.01005418327736" /><line stroke="blue" stroke-width="2.0" x1="94.64202876120314" x2="89.78076810686218" y1="160.01005418327736" y2="167.3988541570409" /><line stroke="blue" stroke-width="2.0" x1="89.78076810686218" x2="85.18912548713647" y1="167.3988541570409" y2="174.93621079336776" /><line stroke="blue" stroke-width="2.0" x1="85.18912548713647" x2="80.87131052693717" y1="174.93621079336776" y2="182.61054399769114" /><line stroke="blue" stroke-width="2.0" x1="80.87131052693717" x2="76.830938948869" y1="182.61054399769114" y2="190.41012975076603" /><line stroke="blue" stroke-width="2.0" x1="76.830938948869" x2="73.0710272658634" y1="190.41012975076603" y2="198.32313365623565" /><line stroke="blue" stroke-width="2.0" x1="73.0710272658634" x2="69.59398946395027" y1="198.32313365623565" y2="206.33764469464552" /><line stroke="blue" stroke-width="2.0" x1="69.59398946395027" x2="66.40163568271883" y1="206.33764469464552" y2="214.44170906338513" /><line stroke="blue" stroke-width="2.0" x1="66.40163568271883" x2="63.49517289364171" y1="214.44170906338513" y2="222.6233639818579" /><line stroke="blue" stroke-width="2.0" x1="63.49517289364171" x2="60.875207569099054" y1="222.6233639818579" y2="230.87067134140125" /><line stroke="blue" stroke-width="2.0" x1="60.875207569099054" x2="58.54175032760279" y1="230.87067134140125" y2="239.17175108020172" /><line stroke="blue" stroke-width="2.0" x1="58.54175032760279" x2="56.49422253346001" y1="239.17175108020172" y2="247.51481416457705" /><line stroke="blue" stroke-width="2.0" x1="56.49422253346001" x2="54.73146482193023" y1="247.51481416457705" y2="255.88819505957963" /><line stroke="blue" stroke-width="2.0" x1="54.73146482193023" x2="53.25174751385809" y1="255.88819505957963" y2="264.2803835739205" /><line stroke="blue" stroke-width="2.0" x1="53.25174751385809" x2="52.05278287683476" y1="264.2803835739205" y2="272.6800559666317" /><line stroke="blue" stroke-width="2.0" x1="52.05278287683476" x2="51.131739183162985" y1="272.6800559666317" y2="281.07610520578703" /><line stroke="blue" stroke-width="2.0" x1="51.131739183162985" x2="50.48525650833177" y1="281.07610520578703" y2="289.45767027284717" /><line stroke="blue" stroke-width="2.0" x1="50.48525650833177" x2="50.10946420732876" y1="289.45767027284717" y2="297.8141644099046" /><line stroke="blue" stroke-width="2.0" x1="50.10946420732876" x2="50.0" y1="297.8141644099046" y2="306.1353022111206" /><line stroke="blue" stroke-width="2.0" x1="50.0" x2="50.15203059079307" y1="306.1353022111206" y2="314.411125464112" /><line stroke="blue" stroke-width="2.0" x1="50.15203059079307" x2="50.560273742635275" y1="314.411125464112" y2="322.6320276517784" /><line stroke="blue" stroke-width="2.0" x1="50.560273742635275" x2="51.21902171941938" y1="322.6320276517784" y2="330.78877703019873" /><line stroke="blue" stroke-width="2.0" x1="51.21902171941938" x2="52.122166006612694" y1="330.78877703019873" y2="338.8725382036268" /><line stroke="blue" stroke-width="2.0" x1="52.122166006612694" x2="53.26322321488051" y1="338.8725382036268" y2="346.8748921233232" /><line stroke="blue" stroke-width="2.0" x1="53.26322321488051" x2="54.63536206737296" y1="346.8748921233232" y2="354.78785444296545" /><line stroke="blue" stroke-width="2.0" x1="54.63536206737296" x2="56.23143136742741" y1="354.78785444296545" y2="362.60389216957407" /><line stroke="blue" stroke-width="2.0" x1="56.23143136742741" x2="58.04398883995769" y1="362.60389216957407" y2="370.3159385553856" /><line stroke="blue" stroke-width="2.0" x1="58.04398883995769" x2="60.065330736706414" y1="370.3159385553856" y2="377.9174061827208" /><line stroke="blue" stroke-width="2.0" x1="60.065330736706414" x2="62.28752209286232" y1="377.9174061827208" y2="385.40219820076544" /><line stroke="blue" stroke-width="2.0" x1="62.28752209286232" x2="64.7024275202936" y1="385.40219820076544" y2="392.7647176801239" /><line stroke="blue" stroke-width="2.0" x1="64.7024275202936" x2="67.30174242083234" y1="392.7647176801239" y2="399.9998750581495" /><line stroke="blue" stroke-width="2.0" x1="67.30174242083234" x2="-1.9999996657924848" y1="399.9998750581495" y2="-7.074700693332492e-09" /><line stroke="blue" stroke-width="2.0" x1="-1.9999996657924848" x2="70.077024501657" y1="-7.074700693332492e-09" y2="407.10309365521704" /><line stroke="blue" stroke-width="2.0" x1="70.077024501657" x2="73.01972547389573" y1="407.10309365521704" y2="414.0703132494096" /><line stroke="blue" stroke-width="2.0" x1="73.01972547389573" x2="76.12122281507894" y1="414.0703132494096" y2="420.8979917043817" /><line stroke="blue" stroke-width="2.0" x1="76.12122281507894" x2="79.37285147602658" y1="420.8979917043817" y2="427.5831046524915" /><line stroke="blue" stroke-width="2.0" x1="79.37285147602658" x2="82.76593541318142" y1="427.5831046524915" y2="434.1231432426264" /><line stroke="blue" stroke-width="2.0" x1="82.76593541318142" x2="86.29181882823949" y1="434.1231432426264" y2="440.51610996939377" /><line stroke="blue" stroke-width="2.0" x1="86.29181882823949" x2="89.94189699824784" y1="440.51610996939377" y2="446.76051260758544" /><line stroke="blue" stroke-width="2.0" x1="89.94189699824784" x2="93.70764658107109" y1="446.76051260758544" y2="452.85535628290603" /><line stroke="blue" stroke-width="2.0" x1="93.70764658107109" x2="97.5806552833107" y1="452.85535628290603" y2="458.80013371697714" /><line stroke="blue" stroke-width="2.0" x1="97.5806552833107" x2="101.55265078035151" y1="458.80013371697714" y2="464.59481369143987" /><line stroke="blue" stroke-width="2.0" x1="101.55265078035151" x2="105.61552878123754" y1="464.59481369143987" y2="470.23982778267765" /><line stroke="blue" stroke-width="2.0" x1="105.61552878123754" x2="109.76138013447571" y1="470.23982778267765" y2="475.73605542512416" /><line stroke="blue" stroke-width="2.0" x1="109.76138013447571" x2="113.98251687469485" y1="475.73605542512416" y2="481.08480736738977" /><line stroke="blue" stroke-width="2.0" x1="113.98251687469485" x2="118.27149711425413" y1="481.08480736738977" y2="486.28780759142796" /><line stroke="blue" stroke-width="2.0" x1="118.27149711425413" x2="122.62114868843682" y1="486.28780759142796" y2="491.34717377069455" /><line stroke="blue" stroke-width="2.0" x1="122.62114868843682" x2="127.02459146776589" y1="491.34717377069455" y2="496.2653963487053" /><line stroke="blue" stroke-width="2.0" x1="127.02459146776589" x2="131.4752582561615" y1="496.2653963487053" y2="501.0453163245073" /><line stroke="blue" stroke-width="2.0" x1="131.4752582561615" x2="135.96691419919694" y1="501.0453163245073" y2="505.6901018364027" /><line stroke="blue" stroke-width="2.0" x1="135.96691419919694" x2="140.49367463248683" y1="505.6901018364027" y2="510.2032236396881" /><line stroke="blue" stroke-width="2.0" x1="140.49367463248683" x2="145.05002130631237" y1="510.2032236396881" y2="514.588429578286" /><line stroke="blue" stroke-width="2.0" x1="145.05002130631237" x2="149.63081692887266" y1="514.588429578286" y2="518.8497181538237" /><line stroke="blue" stroke-width="2.0" x1="149.63081692887266" x2="154.23131797707563" y1="518.8497181538237" y2="522.9913112990497" /><line stroke="blue" stroke-width="2.0" x1="154.23131797707563" x2="158.8471857304645" y1="522.9913112990497" y2="527.0176264653635" /><line stroke="blue" stroke-width="2.0" x1="158.8471857304645" x2="163.4744954907618" y1="527.0176264653635" y2="530.9332481367328" /><line stroke="blue" stroke-width="2.0" x1="163.4744954907618" x2="168.10974395650277" y1="530.9332481367328" y2="534.7428988843305" /><line stroke="blue" stroke-width="2.0" x1="168.10974395650277" x2="172.74985472934813" y1="534.7428988843305" y2="538.4514100778398" /><line stroke="blue" stroke-width="2.0" x1="172.74985472934813" x2="177.3921819358807" y1="538.4514100778398" y2="542.0636923705771" /><line stroke="blue" stroke-width="2.0" x1="177.3921819358807" x2="182.0345119559312" y1="542.0636923705771" y2="545.5847060763043" /><line stroke="blue" stroke-width="2.0" x1="182.0345119559312" x2="186.675063255792" y1="545.5847060763043" y2="549.0194315559103" /><line stroke="blue" stroke-width="2.0" x1="186.675063255792" x2="191.31248433195054" y1="549.0194315559103" y2="552.3728397319662" /><line stroke="blue" stroke-width="2.0" x1="191.31248433195054" x2="195.94584977826557" y1="552.3728397319662" y2="555.6498628485765" /><line stroke="blue" stroke-width="2.0" x1="195.94584977826557" x2="200.57465449670872" y1="555.6498628485765" y2="558.8553655928731" /><line stroke="blue" stroke-width="2.0" x1="200.57465449670872" x2="205.19880607895053" y1="558.8553655928731" y2="561.9941166930273" /><line stroke="blue" stroke-width="2.0" x1="205.19880607895053" x2="209.8186153930936" y1="561.9941166930273" y2="565.0707611057134" /><line stroke="blue" stroke-width="2.0" x1="209.8186153930936" x2="214.43478541675665" y1="565.0707611057134" y2="568.0897929036033" /><line stroke="blue" stroke-width="2.0" x1="214.43478541675665" x2="219.04839836446794" y1="568.0897929036033" y2="571.0555289707006" /><line stroke="blue" stroke-width="2.0" x1="219.04839836446794" x2="223.66090116386607" y1="571.0555289707006" y2="573.9720836101236" /><line stroke="blue" stroke-width="2.0" x1="223.66090116386607" x2="228.2740893415782" y1="573.9720836101236" y2="576.8433441653788" /><line stroke="blue" stroke-width="2.0" x1="228.2740893415782" x2="232.8900893857412" y1="576.8433441653788" y2="579.6729477521833" /><line stroke="blue" stroke-width="2.0" x1="232.8900893857412" x2="237.51133965801355" y1="579.6729477521833" y2="582.4642591935772" /><line stroke="blue" stroke-width="2.0" x1="237.51133965801355" x2="242.1405699334888" y1="582.4642591935772" y2="585.2203502463572" /><line stroke="blue" stroke-width="2.0" x1="242.1405699334888" x2="246.7807796522263" y1="585.2203502463572" y2="587.9439802018655" /><line stroke="blue" stroke-width="2.0" x1="246.7807796522263" x2="251.43521497105965" y1="587.9439802018655" y2="590.6375779388086" /><line stroke="blue" stroke-width="2.0" x1="251.43521497105965" x2="256.10734470898853" y1="590.6375779388086" y2="593.3032255001615" /><line stroke="blue" stroke-width="2.0" x1="256.10734470898853" x2="260.80083528372126" y1="593.3032255001615" y2="595.9426432603047" /><line stroke="blue" stroke-width="2.0" x1="260.80083528372126" x2="265.51952474083504" y1="595.9426432603047" y2="598.5571767423748" /><line stroke="blue" stroke-width="2.0" x1="265.51952474083504" x2="270.267395980547" y1="598.5571767423748" y2="601.1477851394369" /><line stroke="blue" stroke-width="2.0" x1="270.267395980547" x2="275.0485492901865" y1="601.1477851394369" y2="603.715031586482" /><line stroke="blue" stroke-width="2.0" x1="275.0485492901865" x2="279.8671742931819" y1="603.715031586482" y2="606.2590752234978" /><line stroke="blue" stroke-width="2.0" x1="279.8671742931819" x2="284.72752142763824" y1="606.2590752234978" y2="608.7796650829229" /><line stroke="blue" stroke-width="2.0" x1="284.72752142763824" x2="289.6338730694538" y1="608.7796650829229" y2="611.2761358277565" /><line stroke="blue" stroke-width="2.0" x1="289.6338730694538" x2="294.59051441631686" y1="611.2761358277565" y2="613.7474053594373" /><line stroke="blue" stroke-width="2.0" x1="294.59051441631686" x2="299.6017042499208" y1="613.7474053594373" y2="616.1919743073801" /><line stroke="blue" stroke-width="2.0" x1="299.6017042499208" x2="304.67164569423596" y1="616.1919743073801" y2="618.60792740479" /><line stroke="blue" stroke-width="2.0" x1="304.67164569423596" x2="309.80445708777694" y1="618.60792740479" y2="620.9929367480808" /><line stroke="blue" stroke-width="2.0" x1="309.80445708777694" x2="315.0041430874212" y1="620.9929367480808" y2="623.3442669299423" /><line stroke="blue" stroke-width="2.0" x1="315.0041430874212" x2="320.2745661205142" y1="623.3442669299423" y2="625.6587820288553" /><line stroke="blue" stroke-width="2.0" x1="320.2745661205142" x2="325.6194183007498" y1="625.6587820288553" y2="627.9329544306726" /><line stroke="blue" stroke-width="2.0" x1="325.6194183007498" x2="331.0421939215912" y1="627.9329544306726" y2="630.1628754507841" /><line stroke="blue" stroke-width="2.0" x1="331.0421939215912" x2="336.5461626388857" y1="630.1628754507841" y2="632.3442677184244" /><line stroke="blue" stroke-width="2.0" x1="336.5461626388857" x2="342.1343434517444" y1="632.3442677184244" y2="634.4724992778324" /><line stroke="blue" stroke-width="2.0" x1="342.1343434517444" x2="347.80947958780627" y1="634.4724992778324" y2="636.5425993543276" /><line stroke="blue" stroke-width="2.0" x1="347.80947958780627" x2="353.5740143956014" y1="636.5425993543276" y2="638.5492757268889" /><line stroke="blue" stroke-width="2.0" x1="353.5740143956014" x2="359.43006834298336" y1="638.5492757268889" y2="640.4869336425834" /><line stroke="blue" stroke-width="2.0" x1="359.43006834298336" x2="365.3794172164263" y1="640.4869336425834" y2="642.3496962021826" /><line stroke="blue" stroke-width="2.0" x1="365.3794172164263" x2="371.4234716114952" y1="642.3496962021826" y2="644.1314261405696" /><line stroke="blue" stroke-width="2.0" x1="371.4234716114952" x2="377.5632577999273" y1="644.1314261405696" y2="645.825748920086" /><line stroke="blue" stroke-width="2.0" x1="377.5632577999273" x2="383.7994000535844" y1="645.825748920086" y2="647.4260770498252" /><line stroke="blue" stroke-width="2.0" x1="383.7994000535844" x2="390.13210450005624" y1="647.4260770498252" y2="648.9256355390658" /><line stroke="blue" stroke-width="2.0" x1="390.13210450005624" x2="396.56114457890186" y1="648.9256355390658" y2="650.317488388563" /><line stroke="blue" stroke-width="2.0" x1="396.56114457890186" x2="403.08584816150085" y1="650.317488388563" y2="651.5945660193163" /><line stroke="blue" stroke-width="2.0" x1="403.08584816150085" x2="409.7050863911759" y1="651.5945660193163" y2="652.7496935346951" /><line stroke="blue" stroke-width="2.0" x1="409.7050863911759" x2="416.41726429377866" y1="652.7496935346951" y2="653.7756197084732" /><line stroke="blue" stroke-width="2.0" x1="416.41726429377866" x2="423.2203132022081" y1="653.7756197084732" y2="654.6650465883874" /><line stroke="blue" stroke-width="2.0" x1="423.2203132022081" x2="430.11168503149685" y1="654.6650465883874" y2="655.4106596023255" /><line stroke="blue" stroke-width="2.0" x1="430.11168503149685" x2="437.0883484340663" y1="655.4106596023255" y2="656.0051580521475" /><line stroke="blue" stroke-width="2.0" x1="437.0883484340663" x2="444.1467868576606" y1="656.0051580521475" y2="656.4412858785106" /><line stroke="blue" stroke-width="2.0" x1="444.1467868576606" x2="451.2829985212359" y1="656.4412858785106" y2="656.7118625788244" /><line stroke="blue" stroke-width="2.0" x1="451.2829985212359" x2="458.4924983168144" y1="656.7118625788244" y2="656.8098141597169" /><line stroke="blue" stroke-width="2.0" x1="458.4924983168144" x2="465.7703216380179" y1="656.8098141597169" y2="656.7282040050552" /><line stroke="blue" stroke-width="2.0" x1="465.7703216380179" x2="473.1110301286535" y1="656.7282040050552" y2="656.4602635406948" /><line stroke="blue" stroke-width="2.0" x1="473.1110301286535" x2="480.5087193374634" y1="656.4602635406948" y2="655.9994225777076" /><line stroke="blue" stroke-width="2.0" x1="480.5087193374634" x2="487.95702825786617" y1="655.9994225777076" y2="655.3393392168625" /><line stroke="blue" stroke-width="2.0" x1="487.95702825786617" x2="495.4491507243809" y1="655.3393392168625" y2="654.4739291985893" /><line stroke="blue" stroke-width="2.0" x1="495.4491507243809" x2="502.9778486303217" y1="654.4739291985893" y2="653.3973945845728" /><line stroke="blue" stroke-width="2.0" x1="502.9778486303217" x2="-2.9427888198455676" y1="653.3973945845728" y2="-1.0572891342930304" /><line stroke="blue" stroke-width="2.0" x1="4.942614321927385" x2="510.5354669244405" y1="-2.4065175403523016" y2="652.1042516594432" /><line stroke="blue" stroke-width="2.0" x1="510.5354669244405" x2="518.1139503373765" y1="652.1042516594432" y2="650.5893579437951" /><line stroke="blue" stroke-width="2.0" x1="518.1139503373765" x2="525.704861782197" y1="650.5893579437951" y2="648.8479382129295" /><line stroke="blue" stroke-width="2.0" x1="525.704861782197" x2="533.2994023668903" y1="648.8479382129295" y2="646.8756094192772" /><line stroke="blue" stroke-width="2.0" x1="533.2994023668903" x2="540.8884329505036" y1="646.8756094192772" y2="644.6684044204266" /><line stroke="blue" stroke-width="2.0" x1="540.8884329505036" x2="548.4624971687185" y1="644.6684044204266" y2="642.222794418986" /><line stroke="blue" stroke-width="2.0" x1="548.4624971687185" x2="556.0118458489831" y1="642.222794418986" y2="639.5357100252128" /><line stroke="blue" stroke-width="2.0" x1="556.0118458489831" x2="563.5264627300038" y1="639.5357100252128" y2="636.6045608583364" /><line stroke="blue" stroke-width="2.0" x1="563.5264627300038" x2="570.9960913953468" y1="636.6045608583364" y2="633.4272536078695" /><line stroke="blue" stroke-width="2.0" x1="570.9960913953468" x2="578.4102633262212" y1="633.4272536078695" y2="630.0022084818047" /><line stroke="blue" stroke-width="2.0" x1="578.4102633262212" x2="585.7583269741596" y1="630.0022084818047" y2="626.3283739745434" /><line stroke="blue" stroke-width="2.0" x1="585.7583269741596" x2="593.0294777503599" y1="626.3283739745434" y2="622.4052398935486" /><line stroke="blue" stroke-width="2.0" x1="593.0294777503599" x2="600.2127888248425" y1="622.4052398935486" y2="618.2328485901329" /><line stroke="blue" stroke-width="2.0" x1="600.2127888248425" x2="607.2972426254171" y1="618.2328485901329" y2="613.8118043464034" /><line stroke="blue" stroke-width="2.0" x1="607.2972426254171" x2="614.2717629236496" y1="613.8118043464034" y2="609.1432808771738" /><line stroke="blue" stroke-width="2.0" x1="614.2717629236496" x2="621.1252473926805" y1="609.1432808771738" y2="604.2290269126277" /><line stroke="blue" stroke-width="2.0" x1="621.1252473926805" x2="627.8466005198183" y1="604.2290269126277" y2="599.0713698345817" /><line stroke="blue" stroke-width="2.0" x1="627.8466005198183" x2="634.4247667553312" y1="599.0713698345817" y2="593.6732173464158" /><line stroke="blue" stroke-width="2.0" x1="634.4247667553312" x2="640.8487637778368" y1="593.6732173464158" y2="588.0380571639884" /><line stroke="blue" stroke-width="2.0" x1="640.8487637778368" x2="647.1077157560624" y1="588.0380571639884" y2="582.1699547222006" /><line stroke="blue" stroke-width="2.0" x1="647.1077157560624" x2="653.1908864866316" y1="582.1699547222006" y2="576.0735488991979" /><line stroke="blue" stroke-width="2.0" x1="653.1908864866316" x2="659.0877122878032" y1="576.0735488991979" y2="569.75404576757" /><line stroke="blue" stroke-width="2.0" x1="659.0877122878032" x2="664.7878345298625" y1="569.75404576757" y2="563.2172103891958" /><line stroke="blue" stroke-width="2.0" x1="664.7878345298625" x2="670.2811316840496" y1="563.2172103891958" y2="556.4693566776579" /><line stroke="blue" stroke-width="2.0" x1="670.2811316840496" x2="675.5577507735482" y1="556.4693566776579" y2="549.5173353593129" /><line stroke="blue" stroke-width="2.0" x1="675.5577507735482" x2="680.60813811214" y1="549.5173353593129" y2="542.3685200711499" /><line stroke="blue" stroke-width="2.0" x1="680.60813811214" x2="685.4230692186231" y1="542.3685200711499" y2="535.0307916405117" /><line stroke="blue" stroke-width="2.0" x1="685.4230692186231" x2="689.9936777980225" y1="535.0307916405117" y2="527.5125205984755" /><line stroke="blue" stroke-width="2.0" x1="689.9936777980225" x2="694.3114836839432" y1="527.5125205984755" y2="519.8225479852824" /><line stroke="blue" stroke-width="2.0" x1="694.3114836839432" x2="698.3684196401479" y1="519.8225479852824" y2="511.9701645125225" /><line stroke="blue" stroke-width="2.0" x1="698.3684196401479" x2="702.1568569235432" y1="511.9701645125225" y2="503.96508815291776" /><line stroke="blue" stroke-width="2.0" x1="702.1568569235432" x2="705.6696295152353" y1="503.96508815291776" y2="495.81744023436244" /><line stroke="blue" stroke-width="2.0" x1="705.6696295152353" x2="708.9000569311311" y1="495.81744023436244" y2="487.5377201204727" /><line stroke="blue" stroke-width="2.0" x1="708.9000569311311" x2="711.8419655287274" y1="487.5377201204727" y2="479.13677856512373" /><line stroke="blue" stroke-width="2.0" x1="711.8419655287274" x2="714.489708232185" y1="479.13677856512373" y2="470.6257898334055" /><line stroke="blue" stroke-width="2.0" x1="714.489708232185" x2="716.8381826035484" y1="470.6257898334055" y2="462.016222686018" /><line stroke="blue" stroke-width="2.0" x1="716.8381826035484" x2="718.8828471940028" y1="462.016222686018" y2="453.3198103283316" /><line stroke="blue" stroke-width="2.0" x1="718.8828471940028" x2="720.6197361153277" y1="453.3198103283316" y2="444.54851942922966" /><line stroke="blue" stroke-width="2.0" x1="720.6197361153277" x2="722.0454717782193" y1="444.54851942922966" y2="435.71451831826863" /><line stroke="blue" stroke-width="2.0" x1="722.0454717782193" x2="723.1572757508387" y1="435.71451831826863" y2="426.83014447279226" /><line stroke="blue" stroke-width="2.0" x1="723.1572757508387" x2="723.9529776978341" y1="426.83014447279226" y2="417.9078714092374" /><line stroke="blue" stroke-width="2.0" x1="723.9529776978341" x2="724.4310223670947" y1="417.9078714092374" y2="408.96027509512857" /><line stroke="blue" stroke-width="2.0" x1="724.4310223670947" x2="724.5904745986509" y1="408.96027509512857" y2="399.99999999999994" /><circle cx="0.9999127583600288" cy="1.7319033351245652" fill="green" fill-opacity="0.5" r="4" /><text fill="green" font-size="12px" x="10.99991275836003" y="-8.268096664875435">-</text><circle cx="-1.9999996657924848" cy="-7.074700693332492e-09" fill="red" fill-opacity="0.5" r="4" /><text fill="red" font-size="12px" x="8.000000334207515" y="-10.0000000070747">+</text><circle cx="0.9999127510409089" cy="-1.731903337322666" fill="green" fill-opacity="0.5" r="4" /><text fill="green" font-size="12px" x="10.99991275104091" y="-11.731903337322667">-</text><text fill="black" font-size="20px" text-anchor="middle" x="400.0" y="30">Planar Diagram: 3 crossings, writhe=-1.0</text></svg>